<svg width="100" height="21" viewBox="0 0 100 21" fill="none" xmlns="http://www.w3.org/2000/svg">
<g opacity="0.8">
<g clip-path="url(#clip0_1_495)">
<path d="M20 10.9951C20 5.47227 15.5229 0.995117 10 0.995117C4.47715 0.995117 0 5.47227 0 10.9951C0 15.9863 3.65684 20.1234 8.4375 20.8736V13.8857H5.89844V10.9951H8.4375V8.79199C8.4375 6.28574 9.93047 4.90137 12.2146 4.90137C13.3084 4.90137 14.4531 5.09668 14.4531 5.09668V7.55762H13.1922C11.95 7.55762 11.5625 8.32852 11.5625 9.12012V10.9951H14.3359L13.8926 13.8857H11.5625V20.8736C16.3432 20.1234 20 15.9863 20 10.9951Z" fill="#1D2130"/>
</g>
<g clip-path="url(#clip1_1_495)">
<path d="M46.2918 19.1197C53.8371 19.1197 57.9652 12.867 57.9652 7.4463C57.9652 7.27052 57.9613 7.09083 57.9535 6.91505C58.7566 6.3343 59.4496 5.61496 60 4.79083C59.2521 5.12358 58.458 5.3409 57.6449 5.43536C58.5011 4.92217 59.1421 4.11598 59.4492 3.16622C58.6438 3.64355 57.763 3.98026 56.8445 4.16193C56.2257 3.50439 55.4075 3.06901 54.5164 2.92313C53.6253 2.77724 52.711 2.92896 51.9148 3.35483C51.1186 3.7807 50.4848 4.45701 50.1115 5.27918C49.7382 6.10135 49.6462 7.0236 49.8496 7.90333C48.2187 7.82149 46.6233 7.39784 45.1667 6.65983C43.71 5.92183 42.4247 4.88595 41.3941 3.61935C40.8703 4.52245 40.71 5.59112 40.9459 6.60816C41.1817 7.6252 41.7959 8.51429 42.6637 9.09474C42.0122 9.07406 41.375 8.89865 40.8047 8.58302V8.6338C40.8041 9.58154 41.1317 10.5002 41.7319 11.2337C42.3321 11.9672 43.1678 12.4702 44.0969 12.6572C43.4934 12.8224 42.86 12.8464 42.2457 12.7276C42.5079 13.5426 43.018 14.2555 43.7048 14.7667C44.3916 15.2779 45.2209 15.5619 46.077 15.5791C44.6237 16.7207 42.8285 17.3399 40.9805 17.3369C40.6527 17.3364 40.3253 17.3163 40 17.2768C41.8774 18.4812 44.0613 19.1209 46.2918 19.1197Z" fill="#1D2130"/>
</g>
<g clip-path="url(#clip2_1_495)">
<path d="M98.5195 0.995117H81.4766C80.6602 0.995117 80 1.63965 80 2.43652V19.5498C80 20.3467 80.6602 20.9951 81.4766 20.9951H98.5195C99.3359 20.9951 100 20.3467 100 19.5537V2.43652C100 1.63965 99.3359 0.995117 98.5195 0.995117ZM85.9336 18.0381H82.9648V8.49121H85.9336V18.0381ZM84.4492 7.19043C83.4961 7.19043 82.7266 6.4209 82.7266 5.47168C82.7266 4.52246 83.4961 3.75293 84.4492 3.75293C85.3984 3.75293 86.168 4.52246 86.168 5.47168C86.168 6.41699 85.3984 7.19043 84.4492 7.19043ZM97.043 18.0381H94.0781V13.3975C94.0781 12.292 94.0586 10.8662 92.5352 10.8662C90.9922 10.8662 90.7578 12.0732 90.7578 13.3193V18.0381H87.7969V8.49121H90.6406V9.7959H90.6797C91.0742 9.0459 92.043 8.25293 93.4844 8.25293C96.4883 8.25293 97.043 10.2295 97.043 12.7998V18.0381Z" fill="#1D2130"/>
</g>
</g>
<defs>
<clipPath id="clip0_1_495">
<rect width="20" height="20" fill="white" transform="translate(0 0.995117)"/>
</clipPath>
<clipPath id="clip1_1_495">
<rect width="20" height="20" fill="white" transform="translate(40 0.995117)"/>
</clipPath>
<clipPath id="clip2_1_495">
<rect width="20" height="20" fill="white" transform="translate(80 0.995117)"/>
</clipPath>
</defs>
</svg>
