<svg width="32" height="32" viewBox="0 0 32 32" fill="none" xmlns="http://www.w3.org/2000/svg">
<path opacity="0.4" d="M21.4345 2.66699H25.9491C27.8188 2.66699 29.3338 4.19479 29.3338 6.08028V10.633C29.3338 12.5185 27.8188 14.0463 25.9491 14.0463H21.4345C19.5648 14.0463 18.0498 12.5185 18.0498 10.633V6.08028C18.0498 4.19479 19.5648 2.66699 21.4345 2.66699Z" fill="black"/>
<path fill-rule="evenodd" clip-rule="evenodd" d="M6.05169 2.66699H10.5663C12.436 2.66699 13.951 4.19479 13.951 6.08028V10.633C13.951 12.5185 12.436 14.0463 10.5663 14.0463H6.05169C4.182 14.0463 2.66699 12.5185 2.66699 10.633V6.08028C2.66699 4.19479 4.182 2.66699 6.05169 2.66699ZM6.05169 17.9543H10.5663C12.436 17.9543 13.951 19.4821 13.951 21.3676V25.9203C13.951 27.8045 12.436 29.3336 10.5663 29.3336H6.05169C4.182 29.3336 2.66699 27.8045 2.66699 25.9203V21.3676C2.66699 19.4821 4.182 17.9543 6.05169 17.9543ZM25.949 17.9543H21.4344C19.5647 17.9543 18.0497 19.4821 18.0497 21.3676V25.9203C18.0497 27.8045 19.5647 29.3336 21.4344 29.3336H25.949C27.8187 29.3336 29.3337 27.8045 29.3337 25.9203V21.3676C29.3337 19.4821 27.8187 17.9543 25.949 17.9543Z" fill="black"/>
</svg>
