<svg width="28" height="28" viewBox="0 0 28 28" fill="none" xmlns="http://www.w3.org/2000/svg">
<path opacity="0.4" d="M20.2194 27.3199H7.78016C5.85147 27.4398 3.9574 26.7712 2.53219 25.4685C1.22952 24.042 0.560874 22.1479 0.680752 20.2206V7.78009C0.560874 5.85275 1.22819 3.9587 2.53086 2.53217C3.9574 1.22952 5.85147 0.560875 7.78016 0.680751H20.2194C22.1455 0.560875 24.0382 1.22819 25.4634 2.53084C26.7648 3.9587 27.4347 5.85141 27.3202 7.78009V20.2206C27.4387 22.1479 26.7714 24.042 25.4687 25.4685C24.0422 26.7712 22.1481 27.4398 20.2194 27.3199Z" fill="black"/>
<path d="M20.7397 11.8637L12.0027 20.6442C11.5483 21.0865 10.9511 21.3337 10.328 21.3337H7.27716C7.10839 21.3337 6.9526 21.2686 6.83576 21.1515C6.71892 21.0345 6.66699 20.8784 6.66699 20.7093L6.74489 17.6263C6.75787 17.015 7.00453 16.4426 7.43294 16.0133L13.6255 9.80846C13.7293 9.70439 13.9111 9.70439 14.0149 9.80846L16.1869 11.9717C16.3297 12.1135 16.5374 12.2059 16.7581 12.2059C17.2384 12.2059 17.6149 11.8156 17.6149 11.3473C17.6149 11.1132 17.524 10.905 17.3812 10.7489C17.3423 10.6969 15.2742 8.63772 15.2742 8.63772C15.1444 8.50764 15.1444 8.2865 15.2742 8.15642L16.144 7.27187C16.9489 6.46537 18.2471 6.46537 19.052 7.27187L20.7397 8.96293C21.5316 9.75642 21.5316 11.0572 20.7397 11.8637Z" fill="black"/>
</svg>
